<svg width="20" height="20" viewBox="0 0 20 20" fill="none" xmlns="http://www.w3.org/2000/svg">
<path id="Vector" d="M12.4948 9.99988L19.478 3.01672C19.8094 2.68589 19.9958 2.23695 19.9962 1.76866C19.9966 1.30038 19.811 0.851111 19.4802 0.519692C19.1494 0.188273 18.7004 0.00185111 18.2321 0.00143755C17.7638 0.00102399 17.3146 0.186652 16.9832 0.517487L10 7.50064L3.01684 0.517487C2.68542 0.186068 2.23592 -0.00012207 1.76723 -0.00012207C1.29853 -0.00012207 0.849028 0.186068 0.517609 0.517487C0.18619 0.848906 0 1.29841 0 1.7671C0 2.2358 0.18619 2.6853 0.517609 3.01672L7.50077 9.99988L0.517609 16.983C0.18619 17.3145 0 17.764 0 18.2327C0 18.7013 0.18619 19.1509 0.517609 19.4823C0.849028 19.8137 1.29853 19.9999 1.76723 19.9999C2.23592 19.9999 2.68542 19.8137 3.01684 19.4823L10 12.4991L16.9832 19.4823C17.3146 19.8137 17.7641 19.9999 18.2328 19.9999C18.7015 19.9999 19.151 19.8137 19.4824 19.4823C19.8138 19.1509 20 18.7013 20 18.2327C20 17.764 19.8138 17.3145 19.4824 16.983L12.4948 9.99988Z" fill="white"/>
</svg>
